<mxfile host="Electron" modified="2023-05-31T01:08:55.446Z" agent="Mozilla/5.0 (Macintosh; Intel Mac OS X 10_15_7) AppleWebKit/537.36 (KHTML, like Gecko) draw.io/21.2.8 Chrome/112.0.5615.165 Electron/24.2.0 Safari/537.36" etag="LvDZXf6FOEraNpG088SI" version="21.2.8" type="device" pages="4">
  <diagram name="Landing Page" id="G5gbXoaZbaZ6ohgpXtbu">
    <mxGraphModel dx="1114" dy="740" grid="1" gridSize="10" guides="1" tooltips="1" connect="1" arrows="1" fold="1" page="1" pageScale="1" pageWidth="850" pageHeight="1100" math="0" shadow="0">
      <root>
        <mxCell id="0" />
        <mxCell id="1" parent="0" />
        <mxCell id="j_5XMxySv79X16WVs645-1" value="" style="rounded=0;whiteSpace=wrap;html=1;" vertex="1" parent="1">
          <mxGeometry x="11" y="70" width="830" height="580" as="geometry" />
        </mxCell>
        <mxCell id="j_5XMxySv79X16WVs645-2" value="Enter your Zip Code" style="rounded=0;whiteSpace=wrap;html=1;fontStyle=1" vertex="1" parent="1">
          <mxGeometry x="351" y="300" width="190" height="30" as="geometry" />
        </mxCell>
        <mxCell id="j_5XMxySv79X16WVs645-3" value="Search Cheaper Green Energy" style="rounded=0;whiteSpace=wrap;html=1;" vertex="1" parent="1">
          <mxGeometry x="371" y="340" width="150" height="40" as="geometry" />
        </mxCell>
        <mxCell id="j_5XMxySv79X16WVs645-4" value="&lt;font style=&quot;font-size: 32px;&quot;&gt;Clean Energy PA&lt;/font&gt;" style="text;strokeColor=none;align=center;fillColor=none;html=1;verticalAlign=middle;whiteSpace=wrap;rounded=0;" vertex="1" parent="1">
          <mxGeometry x="126" y="150" width="640" height="30" as="geometry" />
        </mxCell>
        <mxCell id="j_5XMxySv79X16WVs645-5" value="Did you know that PA state law allows you to switch energy suppliers from PECO?&lt;br&gt;&lt;br&gt;And - you can actually switch to 100% renewable energy&amp;nbsp;&lt;b style=&quot;border-color: var(--border-color);&quot;&gt;cheaper&lt;/b&gt;&amp;nbsp;&lt;b style=&quot;border-color: var(--border-color);&quot;&gt;than the default PECO rate?&lt;/b&gt;" style="text;strokeColor=none;align=center;fillColor=none;html=1;verticalAlign=middle;whiteSpace=wrap;rounded=0;" vertex="1" parent="1">
          <mxGeometry x="311" y="220" width="270" height="30" as="geometry" />
        </mxCell>
        <mxCell id="j_5XMxySv79X16WVs645-6" value="Clean Energy PA is an open-source application made by graduate students at Penn State.&lt;br&gt;&lt;br&gt;The service is free, and aims to help make it easier to sign up and track for suppliers -- finding an initial green rate at below PECO&#39;s price, keeping track of your contract lengts and alerting you when cheaper ones are available, or when you&#39;re is about to expire.&lt;br&gt;&lt;br&gt;It&#39;s 100% free, the code is open-source, and all data is kept private." style="text;strokeColor=none;align=center;fillColor=none;html=1;verticalAlign=middle;whiteSpace=wrap;rounded=0;" vertex="1" parent="1">
          <mxGeometry x="228.5" y="470" width="435" height="10" as="geometry" />
        </mxCell>
        <mxCell id="j_5XMxySv79X16WVs645-7" value="Login" style="rounded=0;whiteSpace=wrap;html=1;" vertex="1" parent="1">
          <mxGeometry x="751" y="80" width="80" height="30" as="geometry" />
        </mxCell>
        <mxCell id="j_5XMxySv79X16WVs645-8" value="Sign Up" style="rounded=0;whiteSpace=wrap;html=1;" vertex="1" parent="1">
          <mxGeometry x="661" y="80" width="80" height="30" as="geometry" />
        </mxCell>
      </root>
    </mxGraphModel>
  </diagram>
  <diagram id="cobLo2WWUylWDpU3vQ0S" name="SIgn Up">
    <mxGraphModel dx="1114" dy="740" grid="1" gridSize="10" guides="1" tooltips="1" connect="1" arrows="1" fold="1" page="1" pageScale="1" pageWidth="850" pageHeight="1100" math="0" shadow="0">
      <root>
        <mxCell id="0" />
        <mxCell id="1" parent="0" />
        <mxCell id="8TdvDXh82R9zKnkD7a1b-1" value="" style="rounded=0;whiteSpace=wrap;html=1;" vertex="1" parent="1">
          <mxGeometry x="11" y="70" width="830" height="580" as="geometry" />
        </mxCell>
        <mxCell id="8TdvDXh82R9zKnkD7a1b-2" value="E-mail Address" style="rounded=0;whiteSpace=wrap;html=1;" vertex="1" parent="1">
          <mxGeometry x="325" y="200" width="190" height="30" as="geometry" />
        </mxCell>
        <mxCell id="RkZBvtA_enA_jgj_HIPV-1" value="&lt;font style=&quot;font-size: 32px;&quot;&gt;Sign Up&lt;/font&gt;" style="text;strokeColor=none;align=center;fillColor=none;html=1;verticalAlign=middle;whiteSpace=wrap;rounded=0;" vertex="1" parent="1">
          <mxGeometry x="100" y="150" width="640" height="30" as="geometry" />
        </mxCell>
        <mxCell id="RkZBvtA_enA_jgj_HIPV-2" value="First Name" style="rounded=0;whiteSpace=wrap;html=1;" vertex="1" parent="1">
          <mxGeometry x="325" y="250" width="190" height="30" as="geometry" />
        </mxCell>
        <mxCell id="RkZBvtA_enA_jgj_HIPV-3" value="Last Name" style="rounded=0;whiteSpace=wrap;html=1;" vertex="1" parent="1">
          <mxGeometry x="325" y="300" width="190" height="30" as="geometry" />
        </mxCell>
        <mxCell id="RkZBvtA_enA_jgj_HIPV-4" value="Password" style="rounded=0;whiteSpace=wrap;html=1;" vertex="1" parent="1">
          <mxGeometry x="325" y="400" width="190" height="30" as="geometry" />
        </mxCell>
        <mxCell id="RkZBvtA_enA_jgj_HIPV-5" value="Re-enter Password" style="rounded=0;whiteSpace=wrap;html=1;" vertex="1" parent="1">
          <mxGeometry x="325" y="450" width="190" height="30" as="geometry" />
        </mxCell>
        <mxCell id="RkZBvtA_enA_jgj_HIPV-6" value="Sign Up!" style="rounded=0;whiteSpace=wrap;html=1;" vertex="1" parent="1">
          <mxGeometry x="360" y="520" width="120" height="30" as="geometry" />
        </mxCell>
        <mxCell id="RkZBvtA_enA_jgj_HIPV-7" value="Zip Code" style="rounded=0;whiteSpace=wrap;html=1;" vertex="1" parent="1">
          <mxGeometry x="325" y="350" width="190" height="30" as="geometry" />
        </mxCell>
        <mxCell id="_-HdyOLthVO_U-IoXRDH-1" value="By signing up, Clean Energy PA will persist your choices and alert you only when you have a lower rate, or your contract term is about to end." style="text;strokeColor=none;align=center;fillColor=none;html=1;verticalAlign=middle;whiteSpace=wrap;rounded=0;" vertex="1" parent="1">
          <mxGeometry x="300" y="580" width="270" height="30" as="geometry" />
        </mxCell>
      </root>
    </mxGraphModel>
  </diagram>
  <diagram id="TK5zlgImqSnUWF_NvYjh" name="Login">
    <mxGraphModel dx="1114" dy="740" grid="1" gridSize="10" guides="1" tooltips="1" connect="1" arrows="1" fold="1" page="1" pageScale="1" pageWidth="850" pageHeight="1100" math="0" shadow="0">
      <root>
        <mxCell id="0" />
        <mxCell id="1" parent="0" />
        <mxCell id="q0_j2i85gH30eTLd9Mds-1" value="" style="rounded=0;whiteSpace=wrap;html=1;" vertex="1" parent="1">
          <mxGeometry x="11" y="70" width="830" height="580" as="geometry" />
        </mxCell>
        <mxCell id="q0_j2i85gH30eTLd9Mds-2" value="E-mail Address" style="rounded=0;whiteSpace=wrap;html=1;" vertex="1" parent="1">
          <mxGeometry x="325" y="200" width="190" height="30" as="geometry" />
        </mxCell>
        <mxCell id="q0_j2i85gH30eTLd9Mds-3" value="&lt;font style=&quot;font-size: 32px;&quot;&gt;Log In&lt;/font&gt;" style="text;strokeColor=none;align=center;fillColor=none;html=1;verticalAlign=middle;whiteSpace=wrap;rounded=0;" vertex="1" parent="1">
          <mxGeometry x="100" y="150" width="640" height="30" as="geometry" />
        </mxCell>
        <mxCell id="q0_j2i85gH30eTLd9Mds-4" value="Password" style="rounded=0;whiteSpace=wrap;html=1;" vertex="1" parent="1">
          <mxGeometry x="325" y="250" width="190" height="30" as="geometry" />
        </mxCell>
        <mxCell id="q0_j2i85gH30eTLd9Mds-8" value="Login In" style="rounded=0;whiteSpace=wrap;html=1;" vertex="1" parent="1">
          <mxGeometry x="280" y="300" width="120" height="30" as="geometry" />
        </mxCell>
        <mxCell id="Ke3Fu0a9o_0EYU5hldMT-1" value="Sign up" style="rounded=0;whiteSpace=wrap;html=1;" vertex="1" parent="1">
          <mxGeometry x="460" y="300" width="120" height="30" as="geometry" />
        </mxCell>
        <mxCell id="Ke3Fu0a9o_0EYU5hldMT-3" value="&lt;font style=&quot;font-size: 14px;&quot;&gt;or&lt;/font&gt;" style="text;strokeColor=none;align=center;fillColor=none;html=1;verticalAlign=middle;whiteSpace=wrap;rounded=0;" vertex="1" parent="1">
          <mxGeometry x="106" y="300" width="640" height="30" as="geometry" />
        </mxCell>
      </root>
    </mxGraphModel>
  </diagram>
  <diagram id="m826VMLoGEhXKx-HadqA" name="Results">
    <mxGraphModel dx="1114" dy="740" grid="1" gridSize="10" guides="1" tooltips="1" connect="1" arrows="1" fold="1" page="1" pageScale="1" pageWidth="850" pageHeight="1100" math="0" shadow="0">
      <root>
        <mxCell id="0" />
        <mxCell id="1" parent="0" />
        <mxCell id="GQoeBR7rb7PLKWZMMEot-1" value="" style="rounded=0;whiteSpace=wrap;html=1;" vertex="1" parent="1">
          <mxGeometry x="11" y="70" width="830" height="580" as="geometry" />
        </mxCell>
        <mxCell id="GQoeBR7rb7PLKWZMMEot-3" value="&lt;font style=&quot;font-size: 32px;&quot;&gt;100% Clean Energy Options for {Zip Code}&lt;/font&gt;" style="text;strokeColor=none;align=center;fillColor=none;html=1;verticalAlign=middle;whiteSpace=wrap;rounded=0;" vertex="1" parent="1">
          <mxGeometry x="100" y="130" width="640" height="30" as="geometry" />
        </mxCell>
        <mxCell id="0dOwh1pYnS5LPoGWl9Yz-2" value="&lt;font style=&quot;font-size: 26px;&quot;&gt;{Company 1&lt;br&gt;Name}&lt;br&gt;&lt;/font&gt;" style="text;strokeColor=none;align=center;fillColor=none;html=1;verticalAlign=middle;whiteSpace=wrap;rounded=0;" vertex="1" parent="1">
          <mxGeometry x="100" y="220" width="190" height="30" as="geometry" />
        </mxCell>
        <mxCell id="0dOwh1pYnS5LPoGWl9Yz-3" value="&lt;font style=&quot;font-size: 13px;&quot;&gt;X Less than PECO&lt;/font&gt;" style="text;strokeColor=none;align=center;fillColor=none;html=1;verticalAlign=middle;whiteSpace=wrap;rounded=0;" vertex="1" parent="1">
          <mxGeometry x="330" y="230" width="190" height="30" as="geometry" />
        </mxCell>
        <mxCell id="0dOwh1pYnS5LPoGWl9Yz-4" value="&lt;font style=&quot;font-size: 17px;&quot;&gt;{Rate} per kWH&lt;/font&gt;" style="text;strokeColor=none;align=center;fillColor=none;html=1;verticalAlign=middle;whiteSpace=wrap;rounded=0;" vertex="1" parent="1">
          <mxGeometry x="330" y="200" width="190" height="30" as="geometry" />
        </mxCell>
        <mxCell id="fSuD9doJcf3MZ7AJzd6B-1" value="Select and Save" style="rounded=0;whiteSpace=wrap;html=1;" vertex="1" parent="1">
          <mxGeometry x="582" y="220" width="120" height="30" as="geometry" />
        </mxCell>
        <mxCell id="e3JrtJ6DAXIPGHZl00XI-1" value="Login" style="rounded=0;whiteSpace=wrap;html=1;" vertex="1" parent="1">
          <mxGeometry x="751" y="80" width="80" height="30" as="geometry" />
        </mxCell>
        <mxCell id="e3JrtJ6DAXIPGHZl00XI-2" value="Sign Up" style="rounded=0;whiteSpace=wrap;html=1;" vertex="1" parent="1">
          <mxGeometry x="661" y="80" width="80" height="30" as="geometry" />
        </mxCell>
        <mxCell id="e3JrtJ6DAXIPGHZl00XI-3" value="&lt;font style=&quot;font-size: 13px;&quot;&gt;Contract Length: X&lt;/font&gt;" style="text;strokeColor=none;align=center;fillColor=none;html=1;verticalAlign=middle;whiteSpace=wrap;rounded=0;" vertex="1" parent="1">
          <mxGeometry x="330" y="260" width="190" height="30" as="geometry" />
        </mxCell>
        <mxCell id="e3JrtJ6DAXIPGHZl00XI-5" value="" style="endArrow=none;dashed=1;html=1;dashPattern=1 3;strokeWidth=2;rounded=0;" edge="1" parent="1">
          <mxGeometry width="50" height="50" relative="1" as="geometry">
            <mxPoint x="170" y="310" as="sourcePoint" />
            <mxPoint x="620" y="310" as="targetPoint" />
          </mxGeometry>
        </mxCell>
        <mxCell id="e3JrtJ6DAXIPGHZl00XI-6" value="&lt;font style=&quot;font-size: 26px;&quot;&gt;{Company 2&lt;br&gt;Name}&lt;br&gt;&lt;/font&gt;" style="text;strokeColor=none;align=center;fillColor=none;html=1;verticalAlign=middle;whiteSpace=wrap;rounded=0;" vertex="1" parent="1">
          <mxGeometry x="94" y="350" width="190" height="30" as="geometry" />
        </mxCell>
        <mxCell id="e3JrtJ6DAXIPGHZl00XI-7" value="&lt;font style=&quot;font-size: 13px;&quot;&gt;X Less than PECO&lt;/font&gt;" style="text;strokeColor=none;align=center;fillColor=none;html=1;verticalAlign=middle;whiteSpace=wrap;rounded=0;" vertex="1" parent="1">
          <mxGeometry x="324" y="360" width="190" height="30" as="geometry" />
        </mxCell>
        <mxCell id="e3JrtJ6DAXIPGHZl00XI-8" value="&lt;font style=&quot;font-size: 17px;&quot;&gt;{Rate} per kWH&lt;/font&gt;" style="text;strokeColor=none;align=center;fillColor=none;html=1;verticalAlign=middle;whiteSpace=wrap;rounded=0;" vertex="1" parent="1">
          <mxGeometry x="324" y="330" width="190" height="30" as="geometry" />
        </mxCell>
        <mxCell id="e3JrtJ6DAXIPGHZl00XI-9" value="Select and Save" style="rounded=0;whiteSpace=wrap;html=1;" vertex="1" parent="1">
          <mxGeometry x="584" y="350" width="120" height="30" as="geometry" />
        </mxCell>
        <mxCell id="e3JrtJ6DAXIPGHZl00XI-10" value="&lt;font style=&quot;font-size: 13px;&quot;&gt;Contract Length: X&lt;/font&gt;" style="text;strokeColor=none;align=center;fillColor=none;html=1;verticalAlign=middle;whiteSpace=wrap;rounded=0;" vertex="1" parent="1">
          <mxGeometry x="324" y="390" width="190" height="30" as="geometry" />
        </mxCell>
        <mxCell id="e3JrtJ6DAXIPGHZl00XI-11" value="" style="endArrow=none;dashed=1;html=1;dashPattern=1 3;strokeWidth=2;rounded=0;" edge="1" parent="1">
          <mxGeometry width="50" height="50" relative="1" as="geometry">
            <mxPoint x="164" y="440" as="sourcePoint" />
            <mxPoint x="614" y="440" as="targetPoint" />
          </mxGeometry>
        </mxCell>
        <mxCell id="e3JrtJ6DAXIPGHZl00XI-12" value="&lt;font style=&quot;font-size: 26px;&quot;&gt;{Company 3&lt;br&gt;Name}&lt;br&gt;&lt;/font&gt;" style="text;strokeColor=none;align=center;fillColor=none;html=1;verticalAlign=middle;whiteSpace=wrap;rounded=0;" vertex="1" parent="1">
          <mxGeometry x="92" y="492" width="190" height="30" as="geometry" />
        </mxCell>
        <mxCell id="e3JrtJ6DAXIPGHZl00XI-13" value="&lt;font style=&quot;font-size: 13px;&quot;&gt;X Less than PECO&lt;/font&gt;" style="text;strokeColor=none;align=center;fillColor=none;html=1;verticalAlign=middle;whiteSpace=wrap;rounded=0;" vertex="1" parent="1">
          <mxGeometry x="322" y="502" width="190" height="30" as="geometry" />
        </mxCell>
        <mxCell id="e3JrtJ6DAXIPGHZl00XI-14" value="&lt;font style=&quot;font-size: 17px;&quot;&gt;{Rate} per kWH&lt;/font&gt;" style="text;strokeColor=none;align=center;fillColor=none;html=1;verticalAlign=middle;whiteSpace=wrap;rounded=0;" vertex="1" parent="1">
          <mxGeometry x="322" y="472" width="190" height="30" as="geometry" />
        </mxCell>
        <mxCell id="e3JrtJ6DAXIPGHZl00XI-15" value="Select and Save" style="rounded=0;whiteSpace=wrap;html=1;" vertex="1" parent="1">
          <mxGeometry x="582" y="492" width="120" height="30" as="geometry" />
        </mxCell>
        <mxCell id="e3JrtJ6DAXIPGHZl00XI-16" value="&lt;font style=&quot;font-size: 13px;&quot;&gt;Contract Length: X&lt;/font&gt;" style="text;strokeColor=none;align=center;fillColor=none;html=1;verticalAlign=middle;whiteSpace=wrap;rounded=0;" vertex="1" parent="1">
          <mxGeometry x="322" y="532" width="190" height="30" as="geometry" />
        </mxCell>
        <mxCell id="e3JrtJ6DAXIPGHZl00XI-17" value="" style="endArrow=none;dashed=1;html=1;dashPattern=1 3;strokeWidth=2;rounded=0;" edge="1" parent="1">
          <mxGeometry width="50" height="50" relative="1" as="geometry">
            <mxPoint x="162" y="582" as="sourcePoint" />
            <mxPoint x="612" y="582" as="targetPoint" />
          </mxGeometry>
        </mxCell>
        <mxCell id="e3JrtJ6DAXIPGHZl00XI-18" value="If not logged in, direct to login page" style="shape=callout;whiteSpace=wrap;html=1;perimeter=calloutPerimeter;" vertex="1" parent="1">
          <mxGeometry x="661" y="270" width="120" height="80" as="geometry" />
        </mxCell>
        <mxCell id="TzAduP9OPI5Wu0lnWVxA-1" value="If logged in, save the choice and go to the supplier website for sign-up" style="shape=callout;whiteSpace=wrap;html=1;perimeter=calloutPerimeter;" vertex="1" parent="1">
          <mxGeometry x="731" y="200" width="120" height="90" as="geometry" />
        </mxCell>
      </root>
    </mxGraphModel>
  </diagram>
</mxfile>
